<?xml version="1.0" encoding="UTF-8" standalone="no"?>
<!-- Created with Inkscape (http://www.inkscape.org/) -->

<svg
   version="1.1"
   id="svg1"
   width="82.839996"
   height="106.81333"
   viewBox="0 0 82.839996 106.81333"
   sodipodi:docname="icon.eps"
   xmlns:inkscape="http://www.inkscape.org/namespaces/inkscape"
   xmlns:sodipodi="http://sodipodi.sourceforge.net/DTD/sodipodi-0.dtd"
   xmlns="http://www.w3.org/2000/svg"
   xmlns:svg="http://www.w3.org/2000/svg">
  <defs
     id="defs1" />
  <sodipodi:namedview
     id="namedview1"
     pagecolor="#ffffff"
     bordercolor="#000000"
     borderopacity="0.25"
     inkscape:showpageshadow="2"
     inkscape:pageopacity="0.0"
     inkscape:pagecheckerboard="0"
     inkscape:deskcolor="#d1d1d1">
    <inkscape:page
       x="0"
       y="0"
       inkscape:label="1"
       id="page1"
       width="82.839996"
       height="106.81333"
       margin="0"
       bleed="0" />
  </sodipodi:namedview>
  <g
     id="g1"
     inkscape:groupmode="layer"
     inkscape:label="1">
    <g
       id="group-R5">
      <path
         id="path2"
         d="M 93.2461,478.891 310.598,36.6641 c 1.16,-2.3555 3.261,-2.8516 4.828,-2.8516 1.558,0 3.66,0.4961 4.816,2.8516 L 454.344,309.926 c 1.144,2.332 0.101,5.086 -2.371,6.269 z M 315.418,0 C 298.551,0 283.773,8.73438 276.855,22.8047 L 39.0586,520.133 c -2.5195,5.265 0.3008,11.461 6.043,13.277 l 8.1211,2.57 c 4.2382,1.34 8.8554,1.036 12.8632,-0.843 L 468.746,346.324 c 20.145,-9.601 28.496,-31.601 19.352,-50.234 L 353.992,22.8281 C 347.086,8.75 332.313,0.00390625 315.438,0 c -0.008,0 -0.012,0 -0.02,0"
         style="fill:#231f20;fill-opacity:1;fill-rule:nonzero;stroke:none"
         transform="matrix(0.13333333,0,0,-0.13333333,0,106.81333)" />
      <path
         id="path3"
         d="m 484.121,319.453 -33.738,13.856 79.383,161.515 -240.121,-94.179 -14.582,31.07 267.562,104.945 c 9.676,3.789 20.695,1.817 28.07,-5.047 7.379,-6.859 9.36,-16.965 5.055,-25.742 L 484.121,319.453"
         style="fill:#231f20;fill-opacity:1;fill-rule:nonzero;stroke:none"
         transform="matrix(0.13333333,0,0,-0.13333333,0,106.81333)" />
      <path
         id="path4"
         d="M 194.613,444.418 74.7617,691.984 39.6172,669.348 122.758,506.281 89.2344,491.996 2.94922,661.23 c -3.179689,5.708 -3.812501,12.188 -1.77734,18.305 2.02343,6.098 6.47265,11.211 12.58982,14.52 l 50.0352,32.062 c 14.3594,6.949 32.2344,2.25 39.8591,-10.418 l 0.703,-1.304 124.079,-256.293 -33.825,-13.684"
         style="fill:#231f20;fill-opacity:1;fill-rule:nonzero;stroke:none"
         transform="matrix(0.13333333,0,0,-0.13333333,0,106.81333)" />
      <path
         id="path5"
         d="m 138.941,759.418 0.008,-0.023 c 0,0.007 0,0.019 -0.008,0.023 z m 95.375,-324.379 -47.078,317.895 -46.195,-5.954 27.719,-164.125 -36.559,-5.16 -29.812,176.543 c -0.969,5.688 0.57,11.375 4.328,16.016 3.761,4.641 9.277,7.641 15.527,8.453 l 73.34,9.449 c 6.203,0.809 12.398,-0.672 17.41,-4.133 5.004,-3.464 8.223,-8.503 9.067,-14.183 l 48.906,-330.266 -36.653,-4.535"
         style="fill:#231f20;fill-opacity:1;fill-rule:nonzero;stroke:none"
         transform="matrix(0.13333333,0,0,-0.13333333,0,106.81333)" />
      <path
         id="path6"
         d="m 248.043,589.848 -36.656,4.566 22.277,149.27 c 1.727,11.55 12.969,19.636 25.703,18.398 l 82.078,-8.129 c 6.285,-0.621 12.11,-3.594 15.981,-8.156 3.875,-4.567 5.582,-10.461 4.683,-16.18 l -17.261,-108.676 -36.606,4.856 15.231,95.922 -54.938,5.445 -20.492,-137.316"
         style="fill:#231f20;fill-opacity:1;fill-rule:nonzero;stroke:none"
         transform="matrix(0.13333333,0,0,-0.13333333,0,106.81333)" />
      <path
         id="path7"
         d="m 284.141,429.152 -7.758,185.563 c -0.461,11.09 8.265,20.562 20.293,22.039 l 81.652,10.047 c 7.195,0.851 14.238,-1.254 19.418,-5.84 5.176,-4.582 7.734,-10.973 7.012,-17.527 l -18.856,-169.903 -36.797,3.414 17.11,154.243 -52.399,-6.446 7.293,-174.301 -36.968,-1.289"
         style="fill:#231f20;fill-opacity:1;fill-rule:nonzero;stroke:none"
         transform="matrix(0.13333333,0,0,-0.13333333,0,106.81333)" />
      <path
         id="path8"
         d="m 477.277,752.867 c 0.02,0 0.032,-0.004 0.047,-0.004 z m -17.961,-195.965 -36.312,6.45 40.75,191.746 -61.293,10.097 -22.934,-140.062 -36.582,5.012 24.996,152.695 c 0.93,5.687 4.399,10.875 9.512,14.226 5.121,3.36 11.586,4.711 17.813,3.672 l 88.586,-14.593 c 6.183,-1.008 11.586,-4.192 15.16,-8.957 3.578,-4.766 4.883,-10.516 3.679,-16.196 l -43.375,-204.09"
         style="fill:#231f20;fill-opacity:1;fill-rule:nonzero;stroke:none"
         transform="matrix(0.13333333,0,0,-0.13333333,0,106.81333)" />
      <path
         id="path9"
         d="m 414.488,460.34 -34.004,13.316 116.715,248.891 c 2.739,5.816 8.086,10.195 14.684,12.035 6.617,1.856 13.722,0.945 19.527,-2.465 l 79.141,-46.691 c 10.32,-6.098 13.734,-18.559 7.777,-28.371 L 524.152,502.129 491.824,518.551 579.816,663.313 524.871,695.727 414.488,460.34"
         style="fill:#231f20;fill-opacity:1;fill-rule:nonzero;stroke:none"
         transform="matrix(0.13333333,0,0,-0.13333333,0,106.81333)" />
    </g>
  </g>
</svg>
